<svg width="178" height="20" viewBox="0 0 178 20" fill="none" xmlns="http://www.w3.org/2000/svg">
<path d="M22.0851 0.426332H17.4852L11.0568 12.2215L4.62843 0.426332H0V19.4691H4.57129V9.91928L9.59971 19.4691H12.5139L17.5138 9.97612V19.4691H22.0851V0.426332Z" fill="black"/>
<path d="M35.361 0C29.6469 0 25.1613 4.40541 25.1613 9.97612C25.1613 15.5184 29.6469 19.8954 35.361 19.8954C41.0751 19.8954 45.5607 15.5184 45.5607 9.97612C45.5607 4.40541 41.0751 0 35.361 0ZM35.361 15.6037C32.2468 15.6037 29.8754 13.2162 29.8754 9.97612C29.8754 6.70759 32.2468 4.29172 35.361 4.29172C38.4752 4.29172 40.8465 6.70759 40.8465 9.97612C40.8465 13.2162 38.4752 15.6037 35.361 15.6037Z" fill="black"/>
<path d="M58.194 0C52.4799 0 47.9943 4.40541 47.9943 9.97612C47.9943 15.5184 52.4799 19.8954 58.194 19.8954C63.9081 19.8954 68.3937 15.5184 68.3937 9.97612C68.3937 4.40541 63.9081 0 58.194 0ZM58.194 15.6037C55.0798 15.6037 52.7085 13.2162 52.7085 9.97612C52.7085 6.70759 55.0798 4.29172 58.194 4.29172C61.3082 4.29172 63.6796 6.70759 63.6796 9.97612C63.6796 13.2162 61.3082 15.6037 58.194 15.6037Z" fill="black"/>
<path d="M89.7696 0.426332H85.084V11.7951L75.3986 0.426332H71.4845V19.4691H76.1986V8.44134L85.884 19.4691H89.7696V0.426332Z" fill="black"/>
<path d="M97.7286 19.4964H94.6714V0.399048H97.7286V19.4964Z" fill="black"/>
<path d="M102.661 0.399048H109.347C112.566 0.399048 115.128 1.29216 117.033 3.07837C118.957 4.84559 119.919 7.13536 119.919 9.9477C119.919 12.76 118.957 15.0593 117.033 16.8455C115.128 18.6128 112.566 19.4964 109.347 19.4964H102.661V0.399048ZM105.719 16.7315H109.347C111.633 16.7315 113.452 16.1044 114.804 14.8503C116.157 13.5961 116.833 11.9619 116.833 9.9477C116.833 7.93346 116.157 6.29926 114.804 5.04511C113.452 3.79096 111.633 3.16388 109.347 3.16388H105.719V16.7315Z" fill="black"/>
<path d="M138.218 16.7315V19.4964H123.961V0.399048H138.19V3.16388H127.018V8.55103H137.332V11.2874H127.018V16.7315H138.218Z" fill="black"/>
<path d="M160.154 19.4964H156.84L154.954 15.0498H145.639L143.754 19.4964H140.439L148.868 0.399048H151.725L160.154 19.4964ZM153.754 12.2565L150.297 4.133L146.839 12.2565H153.754Z" fill="black"/>
<path d="M169.451 0C171.374 0 172.994 0.484558 174.308 1.45368C175.641 2.42279 176.479 3.73395 176.822 5.38715L173.765 6.01423C173.594 5.0071 173.108 4.19951 172.308 3.59143C171.508 2.96436 170.536 2.65082 169.393 2.65082C168.27 2.65082 167.365 2.92635 166.679 3.47742C165.993 4.00948 165.651 4.70307 165.651 5.55817C165.651 6.22325 165.841 6.74582 166.222 7.12586C166.622 7.50591 167.241 7.78144 168.079 7.95246L172.222 8.83607C175.498 9.55816 177.136 11.2969 177.136 14.0522C177.136 15.8384 176.46 17.2636 175.108 18.3277C173.774 19.3728 172.003 19.8954 169.793 19.8954C167.679 19.8954 165.889 19.4013 164.422 18.4132C162.955 17.4061 162.108 16.0094 161.879 14.2232L165.136 13.5391C165.365 14.7363 165.917 15.6484 166.793 16.2755C167.67 16.8835 168.765 17.1876 170.079 17.1876C171.336 17.1876 172.317 16.9215 173.022 16.3895C173.746 15.8384 174.108 15.1163 174.108 14.2232C174.108 13.5011 173.898 12.9501 173.479 12.57C173.079 12.19 172.394 11.8954 171.422 11.6864L167.251 10.8313C164.031 10.0902 162.422 8.36101 162.422 5.64368C162.422 3.95248 163.06 2.59381 164.336 1.56769C165.632 0.522563 167.336 0 169.451 0Z" fill="black"/>
</svg>
