<svg width="13" height="14" viewBox="0 0 13 14" fill="none" xmlns="http://www.w3.org/2000/svg">
<path fill-rule="evenodd" clip-rule="evenodd" d="M6.25 1.17857C5.63796 1.17857 5.05099 1.42315 4.61822 1.8585C4.18544 2.29385 3.94231 2.88432 3.94231 3.5V3.96429H8.55769V3.5C8.55769 2.88432 8.31456 2.29385 7.88179 1.8585C7.44901 1.42315 6.86204 1.17857 6.25 1.17857ZM9.48077 3.96429V3.5C9.48077 2.63805 9.14039 1.8114 8.5345 1.2019C7.92861 0.59241 7.10685 0.25 6.25 0.25C5.39315 0.25 4.57139 0.59241 3.9655 1.2019C3.35961 1.8114 3.01923 2.63805 3.01923 3.5V3.96429H1.17308C0.928261 3.96429 0.693473 4.06212 0.520363 4.23626C0.347253 4.4104 0.25 4.64658 0.25 4.89286V11.1607C0.25 12.2946 1.19971 13.25 2.32692 13.25H10.1731C11.2867 13.25 12.25 12.3444 12.25 11.197V4.89286C12.25 4.64659 12.1527 4.4104 11.9796 4.23626C11.8065 4.06212 11.5717 3.96429 11.3269 3.96429H9.48077ZM1.17308 4.89286L1.17308 11.1607C1.17308 11.7818 1.70952 12.3214 2.32692 12.3214H10.1731C10.8041 12.3214 11.3269 11.8046 11.3269 11.197V4.89286H1.17308Z" fill="black"/>
<path fill-rule="evenodd" clip-rule="evenodd" d="M3.7882 1.02565C4.44086 0.369112 5.32636 0 6.25 0C7.17364 0 8.05914 0.369112 8.7118 1.02565C9.36441 1.68214 9.73077 2.57222 9.73077 3.5V3.71429H11.3269C11.6385 3.71429 11.9371 3.83882 12.1569 4.06001C12.3768 4.28115 12.5 4.58076 12.5 4.89286V11.197C12.5 12.4888 11.4183 13.5 10.1731 13.5H2.32692C1.06025 13.5 0 12.4313 0 11.1607V4.89286C0 4.58076 0.123234 4.28114 0.343062 4.06001C0.562941 3.83882 0.861477 3.71429 1.17308 3.71429H2.76923V3.5C2.76923 2.57222 3.1356 1.68214 3.7882 1.02565ZM6.25 0.5C5.45993 0.5 4.70192 0.815708 4.1428 1.37815C3.58363 1.94065 3.26923 2.70387 3.26923 3.5V3.96429C3.26923 4.10236 3.1573 4.21429 3.01923 4.21429H1.17308C0.995046 4.21429 0.824006 4.28542 0.697664 4.41251C0.571272 4.53965 0.5 4.71241 0.5 4.89286V11.1607C0.5 12.158 1.33918 13 2.32692 13H10.1731C11.1551 13 12 12.1999 12 11.197V4.89286C12 4.71241 11.9287 4.53965 11.8023 4.41251C11.676 4.28542 11.505 4.21429 11.3269 4.21429H9.48077C9.3427 4.21429 9.23077 4.10236 9.23077 3.96429V3.5C9.23077 2.70387 8.91637 1.94065 8.3572 1.37815C7.79808 0.815708 7.04007 0.5 6.25 0.5ZM6.25 1.42857C5.70475 1.42857 5.18152 1.64645 4.79552 2.03475C4.40946 2.42311 4.19231 2.95015 4.19231 3.5V3.71429H8.30769V3.5C8.30769 2.95015 8.09054 2.42311 7.70448 2.03475C7.31848 1.64645 6.79525 1.42857 6.25 1.42857ZM4.44091 1.68225C4.92046 1.19985 5.57118 0.928571 6.25 0.928571C6.92882 0.928571 7.57954 1.19985 8.05909 1.68225C8.53858 2.1646 8.80769 2.81849 8.80769 3.5V3.96429C8.80769 4.10236 8.69576 4.21429 8.55769 4.21429H3.94231C3.80424 4.21429 3.69231 4.10236 3.69231 3.96429V3.5C3.69231 2.81849 3.96142 2.1646 4.44091 1.68225ZM0.923077 4.89286C0.923077 4.75479 1.03501 4.64286 1.17308 4.64286H11.3269C11.465 4.64286 11.5769 4.75479 11.5769 4.89286V11.197C11.5769 11.9477 10.9371 12.5714 10.1731 12.5714H2.32692C1.57005 12.5714 0.923077 11.9185 0.923077 11.1607L0.923077 4.89286ZM1.42308 5.14286L1.42308 11.1607C1.42308 11.6451 1.84898 12.0714 2.32692 12.0714H10.1731C10.6711 12.0714 11.0769 11.6615 11.0769 11.197V5.14286H1.42308Z" fill="black"/>
</svg>
