<svg width="90" height="20" viewBox="0 0 90 20" fill="none" xmlns="http://www.w3.org/2000/svg">
<path d="M22.0851 0.426332H17.4852L11.0568 12.2215L4.62843 0.426332H0V19.4691H4.57129V9.91928L9.59971 19.4691H12.5139L17.5138 9.97612V19.4691H22.0851V0.426332Z" fill="black"/>
<path d="M35.361 0C29.6469 0 25.1613 4.40541 25.1613 9.97612C25.1613 15.5184 29.6469 19.8954 35.361 19.8954C41.0751 19.8954 45.5607 15.5184 45.5607 9.97612C45.5607 4.40541 41.0751 0 35.361 0ZM35.361 15.6037C32.2468 15.6037 29.8754 13.2162 29.8754 9.97612C29.8754 6.70759 32.2468 4.29172 35.361 4.29172C38.4752 4.29172 40.8465 6.70759 40.8465 9.97612C40.8465 13.2162 38.4752 15.6037 35.361 15.6037Z" fill="black"/>
<path d="M58.194 0C52.4799 0 47.9943 4.40541 47.9943 9.97612C47.9943 15.5184 52.4799 19.8954 58.194 19.8954C63.9081 19.8954 68.3937 15.5184 68.3937 9.97612C68.3937 4.40541 63.9081 0 58.194 0ZM58.194 15.6037C55.0798 15.6037 52.7085 13.2162 52.7085 9.97612C52.7085 6.70759 55.0798 4.29172 58.194 4.29172C61.3082 4.29172 63.6796 6.70759 63.6796 9.97612C63.6796 13.2162 61.3082 15.6037 58.194 15.6037Z" fill="black"/>
<path d="M89.7696 0.426332H85.084V11.7951L75.3986 0.426332H71.4845V19.4691H76.1986V8.44134L85.884 19.4691H89.7696V0.426332Z" fill="black"/>
</svg>
