<svg width="13" height="13" viewBox="0 0 13 13" fill="none" xmlns="http://www.w3.org/2000/svg">
<path d="M6.5 13L5.5575 12.079C4.46333 11.0045 3.55875 10.0777 2.84375 9.29836C2.12875 8.51907 1.56 7.81936 1.1375 7.19924C0.715 6.57958 0.4199 6.00999 0.2522 5.49046C0.0845 4.97094 0.000433333 4.4396 0 3.89646C0 2.78656 0.34125 1.85967 1.02375 1.1158C1.70625 0.371935 2.55667 0 3.575 0C4.13833 0 4.67458 0.129882 5.18375 0.389646C5.69292 0.64941 6.13167 1.01544 6.5 1.48774C6.86833 1.01544 7.30708 0.64941 7.81625 0.389646C8.32542 0.129882 8.86167 0 9.425 0C10.4433 0 11.2937 0.371935 11.9762 1.1158C12.6587 1.85967 13 2.78656 13 3.89646C13 4.4396 12.9159 4.97094 12.7478 5.49046C12.5797 6.00999 12.2846 6.57958 11.8625 7.19924C11.44 7.81936 10.8712 8.51907 10.1562 9.29836C9.44125 10.0777 8.53667 11.0045 7.4425 12.079L6.5 13ZM6.5 11.0872C7.54 10.0718 8.39583 9.20084 9.0675 8.47444C9.73917 7.74805 10.27 7.11658 10.66 6.58005C11.05 6.04258 11.3208 5.56414 11.4725 5.14474C11.6242 4.72534 11.7 4.30925 11.7 3.89646C11.7 3.18801 11.4833 2.59764 11.05 2.12534C10.6167 1.65304 10.075 1.41689 9.425 1.41689C8.91583 1.41689 8.44458 1.57322 8.01125 1.88589C7.57792 2.19855 7.28 2.59717 7.1175 3.08174H5.8825C5.72 2.59764 5.42208 2.19902 4.98875 1.88589C4.55542 1.57275 4.08417 1.41642 3.575 1.41689C2.925 1.41689 2.38333 1.65304 1.95 2.12534C1.51667 2.59764 1.3 3.18801 1.3 3.89646C1.3 4.30972 1.37583 4.72605 1.5275 5.14545C1.67917 5.56485 1.95 6.04305 2.34 6.58005C2.73 7.11706 3.26083 7.74875 3.9325 8.47515C4.60417 9.20154 5.46 10.0722 6.5 11.0872Z" fill="black"/>
</svg>
